<mxfile host="app.diagrams.net" modified="2023-08-07T09:03:47.182Z" agent="Mozilla/5.0 (Windows NT 10.0; Win64; x64) AppleWebKit/537.36 (KHTML, like Gecko) Chrome/115.0.0.0 Safari/537.36" version="21.2.9" etag="WS-JyjzUQyQMcqjbPMhD" type="github">
  <diagram name="Page-1" id="rDTQOPnNH_hDD_zwNCHf">
    <mxGraphModel>
      <root>
        <mxCell id="0" />
        <mxCell id="1" parent="0" />
      </root>
    </mxGraphModel>
  </diagram>
</mxfile>
